<svg xmlns="http://www.w3.org/2000/svg" viewBox="0 0 24 24" height="24" width="24"><path d="M12 0a12 12 0 1 0 12 12A12 12 0 0 0 12 0Zm6.85 11.65a0.48 0.48 0 0 1 0 0.7l-6.77 6.78a0.5 0.5 0 0 1 -0.71 0l-1.29 -1.29a0.48 0.48 0 0 1 0 -0.7l3.21 -3.22a0.26 0.26 0 0 0 0.06 -0.27 0.26 0.26 0 0 0 -0.24 -0.15H5.72a0.51 0.51 0 0 1 -0.5 -0.5v-2a0.51 0.51 0 0 1 0.5 -0.5h7.39a0.26 0.26 0 0 0 0.24 -0.15 0.27 0.27 0 0 0 -0.06 -0.27l-3.21 -3.22a0.48 0.48 0 0 1 0 -0.7l1.29 -1.29a0.5 0.5 0 0 1 0.71 0Z" fill="#000000" stroke-width="1"></path></svg>