<svg xmlns="http://www.w3.org/2000/svg" viewBox="0 0 24 24" height="24" width="24"><path d="M12 23.5A11.5 11.5 0 1 0 0.5 12 11.51 11.51 0 0 0 12 23.5ZM7.05 9.17a1 1 0 0 1 0 -1.41l0.71 -0.71a1 1 0 0 1 1.41 0l2.65 2.65a0.25 0.25 0 0 0 0.36 0l2.65 -2.65a1 1 0 0 1 1.41 0l0.71 0.71a1 1 0 0 1 0 1.41l-2.65 2.65a0.25 0.25 0 0 0 0 0.36l2.7 2.65a1 1 0 0 1 0 1.41l-0.71 0.71a1 1 0 0 1 -1.41 0l-2.7 -2.65a0.25 0.25 0 0 0 -0.36 0L9.17 17a1 1 0 0 1 -1.41 0l-0.71 -0.71a1 1 0 0 1 0 -1.41l2.65 -2.7a0.25 0.25 0 0 0 0 -0.36Z" fill="#000000" stroke-width="1"></path></svg>