<svg xmlns="http://www.w3.org/2000/svg" viewBox="0 0 24 24" height="24" width="24"><g><path d="M2.09 16a1 1 0 0 0 1.44 -0.76 0.94 0.94 0 0 0 -0.43 -1 2.54 2.54 0 0 1 -0.46 -0.35A2.38 2.38 0 0 1 2 12.12a2.58 2.58 0 0 1 1 -2 2.61 2.61 0 0 1 1.64 -0.58 3.27 3.27 0 0 1 0.53 0.05 1 1 0 0 0 0.81 -0.18 1 1 0 0 0 0.39 -0.78c0.08 -5.76 8.3 -7.37 10.82 -2.05a1 1 0 0 0 0.94 0.57 3.69 3.69 0 0 1 3 1.29 3.84 3.84 0 0 1 0.87 2.69 3.48 3.48 0 0 1 -1.26 2.64 0.94 0.94 0 0 0 -0.33 0.93 1 1 0 0 0 1.58 0.62 5.4 5.4 0 0 0 2 -4.24 5.82 5.82 0 0 0 -1 -3.44 5.73 5.73 0 0 0 -4.2 -2.46 0.28 0.28 0 0 1 -0.19 -0.12A7.69 7.69 0 0 0 4.49 7.35a0.24 0.24 0 0 1 -0.22 0.2A4.63 4.63 0 0 0 0.62 9.8 4.42 4.42 0 0 0 0 12.24a4.28 4.28 0 0 0 1.24 3.09 3.7 3.7 0 0 0 0.85 0.67Z" fill="#000000" stroke-width="1"></path><path d="M18.75 15.93A6.75 6.75 0 1 0 12 22.68a6.76 6.76 0 0 0 6.75 -6.75ZM12 20.68a4.75 4.75 0 1 1 4.75 -4.75A4.75 4.75 0 0 1 12 20.68Z" fill="#000000" stroke-width="1"></path><path d="M15 15.93a1 1 0 0 0 -1 -1h-0.75a0.25 0.25 0 0 1 -0.25 -0.25v-1.25a1 1 0 0 0 -2 0v2.5a1 1 0 0 0 1 1h2a1 1 0 0 0 1 -1Z" fill="#000000" stroke-width="1"></path></g></svg>