<svg xmlns="http://www.w3.org/2000/svg" viewBox="0 0 24 24" height="24" width="24"><path d="m22.42 9.76 -1.26 -0.45a1.34 1.34 0 0 1 -0.81 -0.77 1.38 1.38 0 0 1 0 -1.11L21 6.21a2.37 2.37 0 0 0 -3.16 -3.16l-1.22 0.58a1.43 1.43 0 0 1 -1.11 0 1.4 1.4 0 0 1 -0.77 -0.81l-0.45 -1.27a2.38 2.38 0 0 0 -4.48 0l-0.5 1.3a1.4 1.4 0 0 1 -0.77 0.81 1.43 1.43 0 0 1 -1.11 0l-1.22 -0.61a2.37 2.37 0 0 0 -3.16 3.16l0.58 1.22a1.38 1.38 0 0 1 0 1.11 1.34 1.34 0 0 1 -0.81 0.77l-1.26 0.45a2.38 2.38 0 0 0 0 4.48l1.26 0.45a1.34 1.34 0 0 1 0.81 0.77 1.38 1.38 0 0 1 0 1.11l-0.58 1.22A2.37 2.37 0 0 0 6.21 21l1.22 -0.57a1.34 1.34 0 0 1 1.11 0 1.37 1.37 0 0 1 0.77 0.81l0.45 1.26a2.38 2.38 0 0 0 4.48 0l0.45 -1.26a1.37 1.37 0 0 1 0.77 -0.81 1.34 1.34 0 0 1 1.11 0l1.22 0.57A2.37 2.37 0 0 0 21 17.79l-0.58 -1.22a1.38 1.38 0 0 1 0 -1.11 1.34 1.34 0 0 1 0.81 -0.77l1.26 -0.45a2.38 2.38 0 0 0 0 -4.48ZM12 16.79a5 5 0 0 1 -4.44 -2.95 4.8 4.8 0 0 1 2.6 -6.28 4.87 4.87 0 0 1 6.28 2.6 4.8 4.8 0 0 1 -2.6 6.28 4.53 4.53 0 0 1 -1.84 0.35Z" fill="#000000" stroke-width="1"></path></svg>