<?xml version="1.0" encoding="UTF-8" standalone="no"?>
<!DOCTYPE svg PUBLIC "-//W3C//DTD SVG 1.1//EN" "http://www.w3.org/Graphics/SVG/1.1/DTD/svg11.dtd">
<svg width="100%" height="100%" viewBox="0 0 24 24" version="1.1" xmlns="http://www.w3.org/2000/svg" xmlns:xlink="http://www.w3.org/1999/xlink" xml:space="preserve" xmlns:serif="http://www.serif.com/" style="fill-rule:evenodd;clip-rule:evenodd;stroke-linejoin:round;stroke-miterlimit:2;">
    <g>
        <path d="M6.731,12.019C6.731,12.019 7.932,8.76 10.584,8.821C11.618,8.844 13.285,10.059 13.853,10.936C14.286,11.604 14.172,12.849 14.569,13.015C16.481,13.814 16.023,16.993 13.797,17.196C10.223,17.522 9.05,17.438 7.306,16.908C6.555,16.679 4.766,16.031 4.631,15.948C0.562,13.433 6.731,12.019 6.731,12.019Z" style="fill:white;"/>
        <g transform="matrix(0.69683,0,0,0.683948,0.173469,2.17399)">
            <path d="M3.676,18.697C4.324,19.44 10.211,21.896 14.268,22.685C14.268,22.685 14.073,22.637 14.268,22.685C16.28,23.185 20.107,23.445 20.107,23.445C23.375,23.391 23.999,21.742 23.999,19C23.999,17.468 23.294,16.017 22.09,15.07C22.034,15.023 22.001,14.953 22,14.88C21.919,11.097 18.785,8.03 15.002,8.03C11.972,8.03 9.271,9.997 8.34,12.88C8.313,12.979 8.223,13.049 8.12,13.05C5.379,13.39 2.319,15.325 3.676,18.697ZM22,19C22,20.646 20.646,22 19,22L13.088,22C11.158,21.811 5,20.42 5,18.5C5,16.58 6.58,15 8.5,15L9,15C9.53,15.066 10.023,14.697 10.11,14.17C10.593,11.862 12.646,10.195 15.004,10.195C17.673,10.195 19.896,12.333 20,15L20,15.43C19.947,15.833 20.146,16.23 20.5,16.43C21.418,16.96 21.99,17.94 22,19Z" style="fill:rgb(36,135,205);fill-rule:nonzero;"/>
        </g>
    </g>
    <g transform="matrix(1.05897,0,0,0.977178,-0.162046,1.76133)">
        <g transform="matrix(0.944314,0,0,1.15904,0.68112,-3.12862)">
            <path d="M0.162,15.815C0.162,15.815 1.486,17.13 1.823,17.666C2.073,18.065 2.184,19.03 2.184,19.03C2.184,19.03 19.57,24.944 21.902,19.219C23.825,14.499 22.526,12.901 22.526,12.901C22.526,12.901 23.279,14.905 21.77,16.82C17.252,22.551 0.162,15.815 0.162,15.815Z" style="fill:url(#_Linear1);"/>
        </g>
        <g transform="matrix(0.944314,0,0,1.15904,0.68112,-3.12862)">
            <path d="M21.741,16.862C21.741,16.877 23.295,15.217 22.565,12.936C22.183,11.743 19.843,11.085 19.843,11.085L19.866,13.911C19.866,13.911 21.735,14.023 21.741,16.862Z" style="fill:url(#_Linear2);"/>
        </g>
        <g transform="matrix(0.944314,0,0,1.15904,0.913194,-3.12862)">
            <path d="M20.291,15.915L16.144,12.414L20.427,9.021L19.901,11.121L19.959,13.904L20.291,15.915Z" style="fill:rgb(255,255,0);"/>
        </g>
        <g transform="matrix(0.944314,0,0,1.02336,0.153022,-1.4336)">
            <path d="M2.489,18.601C2.489,18.601 15.509,23.641 20.135,21.267C22.351,20.129 22.796,19.115 22.796,19.115C22.796,19.115 22.427,20.799 21.547,21.525C21.047,21.937 20.459,22.322 19.751,22.531C18.624,22.863 17.371,23.153 14.205,22.808C8.156,22.15 2.743,19.898 2.743,19.898C2.743,19.898 2.709,19.568 2.64,19.216C2.577,18.902 2.489,18.601 2.489,18.601Z" style="fill:url(#_Radial3);"/>
        </g>
    </g>
    <g transform="matrix(0.658024,0,0,0.602729,0.40756,2.35267)">
        <g transform="matrix(1.05897,0,0,1.13475,-0.355748,-0.296458)">
            <path d="M9.25,3C9.799,3 10.25,2.549 10.25,2L10.25,1C10.25,0.451 9.799,0 9.25,0C8.701,-0 8.25,0.451 8.25,1L8.25,2C8.25,2.549 8.701,3 9.25,3Z" style="fill:rgb(255,255,0);fill-rule:nonzero;"/>
        </g>
        <g transform="matrix(1.05897,0,0,1.13475,-0.355748,-0.296458)">
            <path d="M3.31,4.58C3.697,4.965 4.333,4.965 4.72,4.58C5.105,4.193 5.105,3.557 4.72,3.17L4,2.46C3.812,2.271 3.557,2.164 3.29,2.164C3.023,2.164 2.768,2.271 2.58,2.46C2.195,2.847 2.195,3.483 2.58,3.87L3.31,4.58Z" style="fill:rgb(255,255,0);fill-rule:nonzero;"/>
        </g>
        <g transform="matrix(1.05897,0,0,1.13475,-0.355748,-0.296458)">
            <path d="M3,9.25C3,8.701 2.549,8.25 2,8.25L1,8.25C0.451,8.25 -0,8.701 0,9.25C0,9.799 0.451,10.25 1,10.25L2,10.25C2.549,10.25 3,9.799 3,9.25Z" style="fill:rgb(255,255,0);fill-rule:nonzero;"/>
        </g>
        <g transform="matrix(1.05897,0,0,1.13475,-0.355748,-0.296458)">
            <path d="M15,4.71C15.267,4.709 15.523,4.601 15.71,4.41L16.41,3.71C16.599,3.522 16.706,3.267 16.706,3C16.706,2.733 16.599,2.478 16.41,2.29C16.023,1.905 15.387,1.905 15,2.29L14.25,3C14.06,3.188 13.953,3.444 13.953,3.711C13.953,4.26 14.405,4.711 14.953,4.711C14.969,4.711 14.984,4.711 15,4.71Z" style="fill:rgb(255,255,0);fill-rule:nonzero;"/>
        </g>
        <g transform="matrix(1.05897,0,0,1.13475,-0.355748,-0.296458)">
            <path d="M6,12C6.071,11.977 6.127,11.921 6.15,11.85C6.184,11.788 6.184,11.712 6.15,11.65C5.803,11.044 5.62,10.358 5.62,9.66C5.62,7.465 7.425,5.66 9.62,5.66L9.66,5.66C10.679,5.661 11.659,6.059 12.39,6.77C12.453,6.833 12.545,6.856 12.63,6.83C13.186,6.678 13.755,6.581 14.33,6.54C14.422,6.533 14.503,6.475 14.54,6.39C14.589,6.314 14.589,6.216 14.54,6.14C13.414,4.566 11.595,3.631 9.66,3.631C6.368,3.631 3.66,6.339 3.66,9.631L3.66,9.66C3.661,10.657 3.915,11.638 4.4,12.51C4.433,12.568 4.487,12.611 4.55,12.63C4.613,12.659 4.687,12.659 4.75,12.63C5.145,12.379 5.564,12.168 6,12Z" style="fill:rgb(255,255,0);fill-rule:nonzero;"/>
        </g>
    </g>
    <defs>
        <linearGradient id="_Linear1" x1="0" y1="0" x2="1" y2="0" gradientUnits="userSpaceOnUse" gradientTransform="matrix(22.4281,0,0,9.51955,0.58837,17.6605)"><stop offset="0" style="stop-color:rgb(255,255,0);stop-opacity:1"/><stop offset="1" style="stop-color:rgb(211,211,0);stop-opacity:1"/></linearGradient>
        <linearGradient id="_Linear2" x1="0" y1="0" x2="1" y2="0" gradientUnits="userSpaceOnUse" gradientTransform="matrix(2.91726,0,0,5.77759,19.8428,13.9734)"><stop offset="0" style="stop-color:rgb(255,255,0);stop-opacity:1"/><stop offset="1" style="stop-color:rgb(170,170,10);stop-opacity:1"/></linearGradient>
        <radialGradient id="_Radial3" cx="0" cy="0" r="1" gradientUnits="userSpaceOnUse" gradientTransform="matrix(-10.3735,15.6854,-15.6854,-10.3735,9.8837,14.1043)"><stop offset="0" style="stop-color:rgb(255,255,0);stop-opacity:1"/><stop offset="1" style="stop-color:rgb(160,160,0);stop-opacity:1"/></radialGradient>
    </defs>
</svg>
