<svg xmlns="http://www.w3.org/2000/svg" viewBox="0 0 24 24" height="24" width="24"><g><path d="M17.5 11a6.5 6.5 0 1 0 6.5 6.5 6.51 6.51 0 0 0 -6.5 -6.5Zm2.5 7.5h-1a0.5 0.5 0 0 0 -0.5 0.5v1a1 1 0 0 1 -2 0v-1a0.5 0.5 0 0 0 -0.5 -0.5h-1a1 1 0 0 1 0 -2h1a0.5 0.5 0 0 0 0.5 -0.5v-1a1 1 0 0 1 2 0v1a0.5 0.5 0 0 0 0.5 0.5h1a1 1 0 0 1 0 2Z" fill="#000000" stroke-width="1"></path><path d="M6.5 0A6.51 6.51 0 0 0 0 6.5c0 4 4.37 9.9 5.71 11.62a1 1 0 0 0 1.58 0C8.63 16.4 13 10.51 13 6.5A6.51 6.51 0 0 0 6.5 0Zm0 9A2.5 2.5 0 1 1 9 6.5 2.5 2.5 0 0 1 6.5 9Z" fill="#000000" stroke-width="1"></path></g></svg>