<svg xmlns="http://www.w3.org/2000/svg" viewBox="0 0 24 24" height="24" width="24"><g><path d="M24 10.93a5.86 5.86 0 0 0 -1 -3.44A5.75 5.75 0 0 0 18.78 5a0.28 0.28 0 0 1 -0.19 -0.12 7.69 7.69 0 0 0 -14.1 2.33 0.24 0.24 0 0 1 -0.22 0.2A4.65 4.65 0 0 0 0.62 9.65 4.52 4.52 0 0 0 0 12.1a4.24 4.24 0 0 0 1.24 3.09 4.31 4.31 0 0 0 1 0.74 1 1 0 0 0 0.89 0 0.93 0.93 0 0 0 0.48 -0.75A1.22 1.22 0 0 0 3 14a1.69 1.69 0 0 1 -0.38 -0.27A2.39 2.39 0 0 1 2 12a2.58 2.58 0 0 1 1 -2 2.61 2.61 0 0 1 1.59 -0.6 2.44 2.44 0 0 1 0.53 0 1 1 0 0 0 1.2 -1c0.09 -5.74 8.3 -7.38 10.82 -2a1 1 0 0 0 0.94 0.57 3.73 3.73 0 0 1 3 1.32 3.86 3.86 0 0 1 0.9 2.75 3.41 3.41 0 0 1 -1.3 2.59 1 1 0 0 0 -0.35 0.9 1 1 0 0 0 1.57 0.64 5.41 5.41 0 0 0 2.1 -4.24Z" fill="#000000" stroke-width="1"></path><path d="M16.33 11.79a0.26 0.26 0 0 1 -0.35 0 6.37 6.37 0 1 0 0.63 8.63A1 1 0 0 0 15 19.17a4.33 4.33 0 0 1 -3.41 1.65 4.38 4.38 0 1 1 2.92 -7.63 0.25 0.25 0 0 1 0.08 0.18 0.23 0.23 0 0 1 -0.07 0.18L13.17 15a0.49 0.49 0 0 0 -0.11 0.54 0.5 0.5 0 0 0 0.46 0.31H18a0.5 0.5 0 0 0 0.5 -0.5v-4.51a0.5 0.5 0 0 0 -0.31 -0.46 0.49 0.49 0 0 0 -0.54 0.11Z" fill="#000000" stroke-width="1"></path></g></svg>