<?xml version="1.0" encoding="UTF-8" standalone="no"?>
<!DOCTYPE svg PUBLIC "-//W3C//DTD SVG 1.1//EN" "http://www.w3.org/Graphics/SVG/1.1/DTD/svg11.dtd">
<svg width="24" height="24" viewBox="0 0 24 24" version="1.1" xmlns="http://www.w3.org/2000/svg" xmlns:xlink="http://www.w3.org/1999/xlink" xml:space="preserve" xmlns:serif="http://www.serif.com/" style="fill-rule:evenodd;clip-rule:evenodd;stroke-linejoin:round;stroke-miterlimit:2;">
    <g transform="matrix(0.0523984,0,0,0.0523984,0,0)">
        <g>
            <g>
                <path d="M312.683,121.738C312.846,122.7 312.95,123.683 312.95,124.692C312.95,134.435 305.052,142.333 295.309,142.333C285.566,142.333 277.668,134.435 277.668,124.692C277.668,116.596 283.128,109.791 290.563,107.715C272.129,98.381 251.302,93.112 229.265,93.112C200.631,93.112 174.039,102.005 152.09,117.162L188.872,156.612C200.841,149.931 214.612,146.107 229.265,146.107C275.117,146.107 312.419,183.41 312.419,229.262C312.419,275.114 275.116,312.417 229.265,312.417C183.414,312.417 146.11,275.114 146.11,229.262C146.11,212.534 151.092,196.956 159.626,183.9L122.842,144.448C104.248,167.731 93.115,197.219 93.115,229.263C93.115,304.337 154.192,365.413 229.265,365.413C304.338,365.413 365.415,304.336 365.415,229.263C365.414,185.596 344.746,146.669 312.683,121.738ZM312.949,315.667C303.206,315.667 295.308,307.769 295.308,298.026C295.308,288.283 303.206,280.385 312.949,280.385C322.692,280.385 330.59,288.283 330.59,298.026C330.591,307.768 322.692,315.667 312.949,315.667Z" style="fill-rule:nonzero;"/>
                <path d="M229.268,249.263C223.914,249.263 218.575,247.127 214.636,242.902L188.563,214.938C186.98,219.424 186.109,224.243 186.109,229.264C186.109,253.06 205.468,272.419 229.264,272.419C253.059,272.419 272.418,253.06 272.418,229.264C272.418,205.468 253.059,186.109 229.264,186.109C225.302,186.109 221.467,186.657 217.819,187.661L243.892,215.625C251.424,223.704 250.982,236.359 242.903,243.892C239.049,247.485 234.152,249.263 229.268,249.263Z" style="fill-rule:nonzero;"/>
                <path d="M229.263,0C102.645,0 0,102.645 0,229.263C0,355.881 102.645,458.526 229.263,458.526C355.881,458.526 458.526,355.881 458.526,229.263C458.526,102.645 355.882,0 229.263,0ZM229.264,405.414C196.641,405.414 166.068,396.489 139.839,380.969C140.209,382.392 140.426,383.876 140.426,385.414C140.426,395.157 132.528,403.055 122.785,403.055C113.042,403.055 105.144,395.157 105.144,385.414C105.144,376.372 111.951,368.929 120.718,367.904C79.586,335.63 53.114,285.481 53.114,229.264C53.114,212.932 55.357,197.117 59.536,182.099C57.279,183.148 54.772,183.75 52.119,183.75C42.376,183.75 34.478,175.852 34.478,166.109C34.478,156.366 42.376,148.468 52.119,148.468C59.114,148.468 65.14,152.549 67.993,158.451C77.489,136.909 91.17,117.611 108.014,101.605C108.378,101.206 108.746,100.81 109.148,100.435C109.562,100.049 109.996,99.697 110.433,99.352C141.783,70.652 183.513,53.114 229.265,53.114C326.395,53.114 405.415,132.135 405.415,229.264C405.415,326.393 326.394,405.414 229.264,405.414Z" style="fill-rule:nonzero;"/>
            </g>
        </g>
    </g>
</svg>
