<?xml version="1.0" encoding="UTF-8" standalone="no"?>
<!DOCTYPE svg PUBLIC "-//W3C//DTD SVG 1.1//EN" "http://www.w3.org/Graphics/SVG/1.1/DTD/svg11.dtd">
<svg width="100%" height="100%" viewBox="0 0 24 24" version="1.1" xmlns="http://www.w3.org/2000/svg" xmlns:xlink="http://www.w3.org/1999/xlink" xml:space="preserve" xmlns:serif="http://www.serif.com/" style="fill-rule:evenodd;clip-rule:evenodd;stroke-linejoin:round;stroke-miterlimit:2;">
    <g>
        <g transform="matrix(0.883306,0,0,0.883306,-3.60978,0)">
            <path d="M12.52,16.42C12.347,16.236 12.251,15.993 12.25,15.74L12.25,3C12.25,1.354 10.896,0 9.25,0C7.604,-0 6.25,1.354 6.25,3L6.25,15.74C6.249,15.993 6.153,16.236 5.98,16.42C5.188,17.249 4.747,18.353 4.75,19.5C4.75,21.969 6.781,24 9.25,24C11.719,24 13.75,21.969 13.75,19.5C13.751,18.354 13.31,17.25 12.52,16.42ZM9.25,21.5C8.154,21.498 7.254,20.596 7.254,19.5C7.254,18.788 7.634,18.127 8.25,17.77C8.404,17.677 8.498,17.51 8.5,17.33L8.5,7.5C8.5,7.089 8.839,6.75 9.25,6.75C9.661,6.75 10,7.089 10,7.5L10,17.33C10.002,17.51 10.096,17.677 10.25,17.77C10.866,18.127 11.246,18.788 11.246,19.5C11.246,20.596 10.346,21.498 9.25,21.5Z" style="fill-rule:nonzero;"/>
        </g>
        <g transform="matrix(0.883306,0,0,0.883306,-3.60978,0)">
            <path d="M19.25,7.5C19.25,8.049 18.799,8.5 18.25,8.5L14.75,8.5C14.201,8.5 13.75,8.049 13.75,7.5C13.75,6.951 14.201,6.5 14.75,6.5L18.25,6.5C18.799,6.5 19.25,6.951 19.25,7.5Z" style="fill-rule:nonzero;"/>
        </g>
        <g transform="matrix(0.883306,0,0,0.883306,-3.60978,0)">
            <path d="M15.75,4L14.75,4C14.201,4 13.75,3.549 13.75,3C13.75,2.451 14.201,2 14.75,2L15.75,2C16.299,2 16.75,2.451 16.75,3C16.75,3.549 16.299,4 15.75,4Z" style="fill-rule:nonzero;"/>
        </g>
        <g transform="matrix(0.883306,0,0,0.883306,-3.60978,0)">
            <path d="M15.75,13L14.75,13C14.201,13 13.75,12.549 13.75,12C13.75,11.451 14.201,11 14.75,11L15.75,11C16.299,11 16.75,11.451 16.75,12C16.75,12.549 16.299,13 15.75,13Z" style="fill-rule:nonzero;"/>
        </g>
        <g transform="matrix(1.13646,0.304515,-0.304515,1.13646,-2.21704,5.56171)">
            <path d="M23.6,6.49L22.83,5.67C22.752,5.574 22.752,5.436 22.83,5.34L23.59,4.51C24.047,4.038 24.13,3.312 23.79,2.75C23.485,2.162 22.816,1.853 22.17,2L21.08,2.26C20.958,2.281 20.838,2.208 20.8,2.09L20.48,1.02C20.279,0.405 19.697,-0.01 19.05,0C18.396,-0 17.816,0.433 17.63,1.06L17.3,2.13C17.273,2.235 17.177,2.31 17.068,2.31C17.045,2.31 17.022,2.306 17,2.3L15.94,2C15.303,1.842 14.635,2.135 14.32,2.71C13.981,3.271 14.059,3.994 14.51,4.47L15.28,5.3C15.358,5.396 15.358,5.534 15.28,5.63L14.51,6.45C14.061,6.93 13.983,7.655 14.32,8.22C14.641,8.789 15.306,9.076 15.94,8.92L17,8.71C17.117,8.684 17.236,8.755 17.27,8.87L17.63,10C17.834,10.606 18.411,11.012 19.05,11C19.693,11.016 20.275,10.609 20.48,10L20.8,8.92C20.838,8.803 20.96,8.733 21.08,8.76L22.17,9C22.299,9.036 22.433,9.054 22.567,9.054C23.385,9.054 24.057,8.381 24.057,7.564C24.057,7.159 23.892,6.771 23.6,6.49ZM19.05,7.49C17.99,7.484 17.121,6.61 17.121,5.55C17.121,4.486 17.996,3.61 19.061,3.61C20.106,3.61 20.973,4.455 21,5.5C21,5.5 21,5.5 21,5.5C21,6.564 20.124,7.44 19.06,7.44C19.057,7.44 19.053,7.44 19.05,7.44L19.05,7.49Z" style="fill-rule:nonzero;"/>
        </g>
    </g>
</svg>
