<svg xmlns="http://www.w3.org/2000/svg" viewBox="0 0 24 24" height="24" width="24"><g><path d="M22.51 9.94a0.27 0.27 0 0 1 -0.07 -0.21A4.5 4.5 0 0 0 19 4.61a0.29 0.29 0 0 1 -0.17 -0.14 7 7 0 0 0 -13 0.92 0.25 0.25 0 0 1 -0.2 0.17A6.5 6.5 0 0 0 0 12a6.15 6.15 0 0 0 0.06 0.87 0.27 0.27 0 0 0 0.11 0.18 0.24 0.24 0 0 0 0.2 0A2.59 2.59 0 0 1 1 13h0.81a0.25 0.25 0 0 0 0.19 -0.09 0.24 0.24 0 0 0 0.06 -0.2A4.17 4.17 0 0 1 2 12a4.52 4.52 0 0 1 4.58 -4.5 1 1 0 0 0 1 -0.83 5 5 0 0 1 9.65 -0.83 1 1 0 0 0 0.89 0.66A2.5 2.5 0 0 1 20.5 9a2.57 2.57 0 0 1 -0.15 0.87 1 1 0 0 0 0.36 1.13A3 3 0 0 1 19 16.5h-4.59a0.25 0.25 0 0 0 -0.23 0.17 0.24 0.24 0 0 0 0.08 0.28 4.57 4.57 0 0 1 1.2 1.42 0.26 0.26 0 0 0 0.22 0.13H19a5 5 0 0 0 3.51 -8.56Z" fill="#000000" stroke-width="1"></path><path d="M1 16.5h7.5a3 3 0 0 0 0 -6 1 1 0 0 0 0 2 1 1 0 0 1 0 2H1a1 1 0 0 0 0 2Z" fill="#000000" stroke-width="1"></path><path d="M11.5 17.5H1a1 1 0 0 0 0 2h10.5a1 1 0 0 1 0 2 1 1 0 0 0 0 2 3 3 0 0 0 0 -6Z" fill="#000000" stroke-width="1"></path></g></svg>